<svg width="300" height="165" viewBox="0 0 300 165" fill="none" xmlns="http://www.w3.org/2000/svg" role="img" aria-labelledby="t">
<title id="t">Most Used Languages</title>
<style>
.header { font: 600 18px 'Segoe UI', Ubuntu, 'Helvetica Neue', Sans-Serif; fill: #00ADB5; }
.lang { font: 400 11px 'Segoe UI', Ubuntu, 'Helvetica Neue', Sans-Serif; fill: #c9d1d9; }
.pct { fill: #8b949e; }
</style>
<rect width="300" height="165" rx="4.5" fill="#0d1117"/>
<text x="25" y="35" class="header">Most Used Languages</text>
<g transform="translate(0,55)">
<mask id="m"><rect x="25" y="0" width="250" height="8" rx="4" fill="white"/></mask>
<g mask="url(#m)"><rect x="25.00" y="0" width="223.76" height="8" fill="#3572A5"/><rect x="248.76" y="0" width="10.62" height="8" fill="#89e051"/><rect x="259.38" y="0" width="6.69" height="8" fill="#e34c26"/><rect x="266.06" y="0" width="6.26" height="8" fill="#f1e05a"/><rect x="272.32" y="0" width="1.34" height="8" fill="#DA5B0B"/><rect x="273.66" y="0" width="0.82" height="8" fill="#3D6117"/><rect x="274.48" y="0" width="0.43" height="8" fill="#663399"/><rect x="274.91" y="0" width="0.09" height="8" fill="#384d54"/></g>
</g>
<g transform="translate(25,85)"><circle cx="5" cy="-4" r="5" fill="#3572A5"/><text x="16" y="0" class="lang">Python <tspan class="pct">89.5%</tspan></text></g><g transform="translate(155,85)"><circle cx="5" cy="-4" r="5" fill="#89e051"/><text x="16" y="0" class="lang">Shell <tspan class="pct">4.2%</tspan></text></g><g transform="translate(25,104)"><circle cx="5" cy="-4" r="5" fill="#e34c26"/><text x="16" y="0" class="lang">HTML <tspan class="pct">2.7%</tspan></text></g><g transform="translate(155,104)"><circle cx="5" cy="-4" r="5" fill="#f1e05a"/><text x="16" y="0" class="lang">JavaScript <tspan class="pct">2.5%</tspan></text></g><g transform="translate(25,123)"><circle cx="5" cy="-4" r="5" fill="#DA5B0B"/><text x="16" y="0" class="lang">Jupyter Notebook <tspan class="pct">0.5%</tspan></text></g><g transform="translate(155,123)"><circle cx="5" cy="-4" r="5" fill="#3D6117"/><text x="16" y="0" class="lang">TeX <tspan class="pct">0.3%</tspan></text></g><g transform="translate(25,142)"><circle cx="5" cy="-4" r="5" fill="#663399"/><text x="16" y="0" class="lang">CSS <tspan class="pct">0.2%</tspan></text></g><g transform="translate(155,142)"><circle cx="5" cy="-4" r="5" fill="#384d54"/><text x="16" y="0" class="lang">Dockerfile <tspan class="pct">0.0%</tspan></text></g>
</svg>
